<svg xmlns="http://www.w3.org/2000/svg" width="256" height="256"><path fill="#736B84" stroke="#000" stroke-width=".23426080999999999" d="M52.789 106.785c-6.754-.496-12.777-2.012-16.7-4.2-2.429-1.359-5.175-4.292-5.843-6.25-2.203-6.468 2.75-16.937 10.855-22.948 6.711-4.977 14.836-7.559 24.77-7.88l5.137-.163-2.278.804c-8.398 2.953-16.465 9.715-22.597 18.938-4.73 7.113-5.051 12.023-.934 14.437 2.094 1.227 4.602 1.895 9.844 2.625 4.699.656 6.777 1.215 6.777 1.82 0 .676-4.594 3.262-5.508 3.098-.136-.023-1.722-.152-3.523-.281Zm-21.57 41.629c-1.028-1.047-2.203-2.676-2.793-3.875-.957-1.938-1.016-2.266-1.016-5.371v-3.305l1.527-3.086c1.34-2.707 1.914-3.469 4.676-6.2 2.031-2.01 4.117-3.71 5.88-4.792 1.5-.922 2.78-1.625 2.847-1.559.066.067-.38.965-.985 1.992-1.496 2.532-4.562 8.645-5.379 10.727-.914 2.328-1.523 5.445-2.308 11.836l-.672 5.437Zm62.37 60.55c-18.484-.722-29.663-2.523-36.284-5.855-5.168-2.598-10.094-6.79-13.344-11.356-4.035-5.668-6.965-13.757-7.54-20.832l-.19-2.3 1.136 2.215c5.578 10.894 19.563 18.964 39.871 23.011 10.992 2.188 18.383 2.79 34.258 2.781 18.91-.007 36.613-1.39 51.855-4.05 18.586-3.25 32.078-8.653 36.969-14.813 2.883-3.633 3.949-11.308 2.41-17.398-1.191-4.73-4.598-10.172-8.797-14.059-6.453-5.976-13.539-9.652-27.625-14.336-10.61-3.527-15.105-5.37-15.105-6.191 0-1.34 12.351-.356 31.402 2.508 10.64 1.597 12.496 1.98 16.988 3.472 12.125 4.032 20.903 10.98 25.254 19.993 3.508 7.253 4.156 16.39 1.711 24.011-3.805 11.871-15.652 20.98-34.492 26.524-8.156 2.402-14.961 3.484-28.094 4.468-25.57 1.918-54.5 2.825-70.382 2.207Zm-41.577 2.89c-2.73-.612-5.176-1.3-10.434-2.937-8.996-2.8-8.547-2.597-9.621-4.273-.52-.809-1.305-2.43-1.746-3.605-.715-1.895-2.957-10.164-2.957-10.895 0-.156.433.332.969 1.086 1.336 1.887 4.691 5.305 7.164 7.3 2.859 2.305 6.5 4.61 12.796 8.094 2.961 1.637 5.774 3.356 6.254 3.817.809.773.832.863.332 1.23-.535.391-1.539.457-2.757.184Zm167.929-13.362c4.441-4.7 7.488-8.25 8.64-10.07.915-1.454 4.532-13.426 4.532-15.008 0-1.645.554-1.836 1.633-.563 1.667 1.969 1.874 2.64 1.718 5.555-.18 3.242-.875 5.375-3.52 10.77l-1.984 4.05-7.242 4.668c-3.98 2.57-7.383 4.73-7.558 4.8-.176.071 1.527-1.823 3.78-4.202Zm11.914-60.309c-11.594-19.097-13.457-21.633-18.336-24.93-3.68-2.48-11.36-5.827-13.379-5.827-1.363 0-.863-.563.797-.895 2.437-.488 6.488-.441 9.105.11 4.309.906 9.442 3.32 12.653 5.952 4.293 3.516 8.543 11.63 11.531 22.008 1.047 3.637 2.703 11.153 2.504 11.352-.055.054-2.246-3.446-4.875-7.77Zm0 0"/><path fill="#FFF" stroke="#000" stroke-width=".23426080999999999" d="M138.746 169.863c0-.09-3.867-12.809-8.594-28.262-10.2-33.36-11.328-37.078-11.336-37.328 0-.105 1.086-.36 2.41-.57 4.59-.727 13.028-2.54 19.078-4.098 19.2-4.945 29.29-10.539 29.27-16.23-.004-1.512-1.125-3.63-4.496-8.496-3.203-4.625-4.782-6.469-6.157-7.192-.464-.242-3.406-.879-6.539-1.41-5.59-.949-5.835-.965-13.168-.789-7.402.176-12.445.59-21.492 1.777-2.566.336-5.382.696-6.254.801l-1.585.192-1.88-5.254c-2.546-7.137-2.41-6.551-1.577-6.735 12.902-2.836 22.48-3.98 33.41-3.996 15.578-.02 25.824 2.551 33.847 8.496 6.23 4.618 10.262 12.79 10.262 20.797 0 1.809-.207 3.836-.516 5.024-2.976 11.539-16.761 19.82-39.05 23.468-2.641.434-6.11.88-7.707.992-1.915.133-2.91.329-2.91.57 0 .388 4.038 14.477 9.55 33.333 4.813 16.465 6.957 23.91 6.957 24.14 0 .114-2.137.371-4.75.57-5.195.4-6.773.442-6.773.2Zm-76.242 5.219c.074-.297 5.941-26.7 13.039-58.672L88.449 58.28l3.523-.219c1.938-.12 3.579-.164 3.645-.097.066.066 6.871 21.976 15.121 48.691s16.031 51.918 17.297 56.008c1.265 4.09 2.3 7.539 2.3 7.664 0 .238-11.44 1.125-11.66.906-.07-.07-5.914-19.715-12.984-43.648-7.07-23.938-12.941-43.52-13.043-43.52s-.86 3.328-1.687 7.399c-.828 4.066-4.223 20.57-7.547 36.671A46460 46460 0 0 0 75.605 166l-1.77 8.59-5.148.523c-6.414.652-6.347.652-6.183-.031Zm0 0"/><path fill="#736B84" stroke="#000" stroke-width=".23426080999999999" d="M179.234 56.7a246 246 0 0 1-7.941-4.833c-2.06-1.32-5.563-3.328-7.79-4.465l-4.046-2.062 1.886-.88c3.313-1.546 6.68-2.222 10.243-2.062 3.734.172 5.425.809 7.32 2.758 1.515 1.563 3.172 4.899 3.887 7.828.496 2.031 1.011 6.18.765 6.156-.066-.007-2.012-1.105-4.324-2.44Zm0 0"/></svg>